<svg width="330" height="329" viewBox="0 0 330 329" fill="none" xmlns="http://www.w3.org/2000/svg">
<g clip-path="url(#clip0_2549_6497)">
<ellipse cx="280.997" cy="311.056" rx="419.893" ry="407.349" fill="#8BC43E"/>
<ellipse cx="279.647" cy="306.281" rx="332.591" ry="325.433" fill="#6CA840"/>
<ellipse cx="279.648" cy="306.277" rx="242.243" ry="235.398" fill="#4D903F"/>
<ellipse cx="280.998" cy="282.866" rx="143.256" ry="137.686" fill="#066638"/>
<ellipse cx="304.99" cy="311.06" rx="119.264" ry="112.849" fill="#077D45"/>
<path d="M286.389 250.502C286.389 257.045 285.559 262.953 283.898 268.227C282.238 273.402 280.041 277.992 277.307 281.996C274.572 285.902 271.398 289.271 267.785 292.104C264.172 294.838 260.363 297.084 256.359 298.842C252.453 300.6 248.449 301.918 244.348 302.797C240.344 303.578 236.535 303.969 232.922 303.969H164.221C157.678 303.969 151.818 303.139 146.643 301.479C141.467 299.818 136.877 297.621 132.873 294.887C128.967 292.055 125.598 288.832 122.766 285.219C120.031 281.605 117.785 277.846 116.027 273.939C114.27 269.936 112.951 265.932 112.072 261.928C111.291 257.826 110.9 254.018 110.9 250.502V198.939C110.9 189.174 112.658 180.922 116.174 174.184C119.787 167.348 124.23 161.83 129.504 157.631C134.875 153.334 140.686 150.258 146.936 148.402C153.186 146.547 158.947 145.619 164.221 145.619H232.922V183.705H164.514C159.436 183.705 155.578 185.023 152.941 187.66C150.305 190.199 148.986 193.959 148.986 198.939V250.209C148.986 255.385 150.256 259.291 152.795 261.928C155.432 264.564 159.24 265.883 164.221 265.883H232.922C238.098 265.883 241.955 264.564 244.494 261.928C247.033 259.291 248.303 255.482 248.303 250.502V78.6758H286.389V250.502Z" fill="white"/>
</g>
<defs>
<clipPath id="clip0_2549_6497">
<path d="M0 19.049C0 8.52852 8.52853 0 19.049 0H245.601C292.067 0 329.734 37.6676 329.734 84.133V309.924C329.734 320.444 321.206 328.973 310.685 328.973H74.6086C33.4034 328.973 0 295.569 0 254.364V19.049Z" fill="white"/>
</clipPath>
</defs>
</svg>
