<svg width="1804" height="383" viewBox="0 0 1804 383" fill="none" xmlns="http://www.w3.org/2000/svg">
<g clip-path="url(#clip0_2549_6505)">
<ellipse cx="280.997" cy="345.032" rx="419.893" ry="407.349" fill="#8BC43E"/>
<ellipse cx="279.647" cy="340.257" rx="332.591" ry="325.433" fill="#6CA840"/>
<ellipse cx="279.648" cy="340.254" rx="242.243" ry="235.398" fill="#4D903F"/>
<ellipse cx="280.998" cy="316.843" rx="143.256" ry="137.686" fill="#066638"/>
<ellipse cx="304.99" cy="345.036" rx="119.264" ry="112.849" fill="#077D45"/>
<path d="M286.389 284.479C286.389 291.021 285.559 296.93 283.898 302.203C282.238 307.379 280.041 311.969 277.307 315.973C274.572 319.879 271.398 323.248 267.785 326.08C264.172 328.814 260.363 331.061 256.359 332.818C252.453 334.576 248.449 335.895 244.348 336.773C240.344 337.555 236.535 337.945 232.922 337.945H164.221C157.678 337.945 151.818 337.115 146.643 335.455C141.467 333.795 136.877 331.598 132.873 328.863C128.967 326.031 125.598 322.809 122.766 319.195C120.031 315.582 117.785 311.822 116.027 307.916C114.27 303.912 112.951 299.908 112.072 295.904C111.291 291.803 110.9 287.994 110.9 284.479V232.916C110.9 223.15 112.658 214.898 116.174 208.16C119.787 201.324 124.23 195.807 129.504 191.607C134.875 187.311 140.686 184.234 146.936 182.379C153.186 180.523 158.947 179.596 164.221 179.596H232.922V217.682H164.514C159.436 217.682 155.578 219 152.941 221.637C150.305 224.176 148.986 227.936 148.986 232.916V284.186C148.986 289.361 150.256 293.268 152.795 295.904C155.432 298.541 159.24 299.859 164.221 299.859H232.922C238.098 299.859 241.955 298.541 244.494 295.904C247.033 293.268 248.303 289.459 248.303 284.479V112.652H286.389V284.479Z" fill="white"/>
</g>
<path d="M385.351 264V67.4449H422.317C432.592 67.4449 440.595 69.604 446.328 73.9223C452.061 78.1661 456.081 84.2712 458.389 92.2376C460.697 100.204 461.851 109.734 461.851 120.827L461.963 207.155C461.963 220.408 460.623 231.241 457.943 239.654C455.337 247.993 451.056 254.135 445.1 258.081C439.218 262.027 431.363 264 421.535 264H385.351ZM408.357 245.35H420.195C424.365 245.35 427.827 244.456 430.581 242.669C433.336 240.808 435.384 237.383 436.724 232.395C438.138 227.407 438.846 220.185 438.846 210.729V120.269C438.846 107.91 437.394 99.0873 434.49 93.8011C431.586 88.4405 426.821 85.7603 420.195 85.7603H408.357V245.35ZM565.396 266.01C557.355 266.01 550.878 264.633 545.964 261.878C541.124 259.049 537.439 255.066 534.907 249.928C532.376 244.791 530.664 238.649 529.77 231.501C528.951 224.279 528.542 216.313 528.542 207.602V148.412C528.542 140.52 529.1 133.298 530.217 126.746C531.334 120.12 533.269 114.425 536.024 109.66C538.779 104.82 542.613 101.098 547.527 98.4917C552.441 95.8114 558.695 94.4712 566.289 94.4712C573.958 94.4712 580.137 95.8114 584.828 98.4917C589.518 101.172 593.055 104.969 595.437 109.883C597.894 114.722 599.532 120.53 600.351 127.305C601.17 134.006 601.58 141.376 601.58 149.417V181.022H551.548V214.415C551.548 224.987 552.255 233.065 553.669 238.649C555.159 244.158 559.142 246.913 565.619 246.913C569.863 246.913 572.878 245.61 574.665 243.004C576.526 240.324 577.643 236.601 578.016 231.836C578.462 226.997 578.686 221.301 578.686 214.75V201.236H601.133V208.384C601.133 217.095 600.761 224.987 600.016 232.06C599.346 239.133 597.857 245.201 595.549 250.263C593.241 255.326 589.667 259.235 584.828 261.99C580.063 264.67 573.586 266.01 565.396 266.01ZM551.436 165.499H578.686V144.168C578.686 137.468 578.462 131.846 578.016 127.305C577.569 122.689 576.489 119.227 574.777 116.919C573.064 114.536 570.235 113.345 566.289 113.345C561.897 113.345 558.621 114.685 556.461 117.365C554.377 120.046 552.999 123.768 552.329 128.533C551.734 133.224 551.436 138.696 551.436 144.95V165.499ZM699.652 266.234C687.739 266.234 678.693 262.511 672.514 255.066C666.334 247.546 663.245 235.112 663.245 217.765V205.145H685.469V217.653C685.469 227.034 686.474 234.219 688.484 239.207C690.569 244.196 693.956 246.69 698.647 246.69C703.337 246.69 706.762 245.163 708.921 242.111C711.155 239.058 712.272 233.586 712.272 225.694C712.272 221.748 711.676 217.839 710.485 213.968C709.293 210.022 707.469 206.15 705.012 202.353C702.556 198.482 699.391 194.722 695.52 191.074L683.682 179.794C676.609 173.019 671.211 165.834 667.488 158.24C663.766 150.571 661.904 142.456 661.904 133.894C661.904 120.344 665.106 110.404 671.509 104.076C677.912 97.6727 686.734 94.4712 697.977 94.4712C705.496 94.4712 711.825 96.1092 716.962 99.3851C722.099 102.661 725.971 108.096 728.577 115.69C731.183 123.284 732.486 133.633 732.486 146.737V154.778H710.708V143.163C710.708 133.782 709.777 126.598 707.916 121.609C706.129 116.621 702.891 114.127 698.2 114.127C693.658 114.127 690.234 115.467 687.926 118.147C685.692 120.753 684.464 125.555 684.24 132.554C684.166 136.127 684.612 139.738 685.58 143.387C686.623 147.035 688.298 150.646 690.606 154.22C692.914 157.793 695.892 161.293 699.54 164.717L711.602 175.997C719.419 183.219 725.301 190.999 729.247 199.338C733.267 207.602 735.277 216.35 735.277 225.582C735.277 238.239 732.374 248.179 726.567 255.401C720.834 262.623 711.862 266.234 699.652 266.234ZM797.389 264V96.4814H820.395V264H797.389ZM797.389 81.0697V60.0741H820.395V81.0697H797.389ZM925.726 289.575C918.057 289.798 911.133 288.942 904.954 287.006C898.849 285.07 893.6 282.353 889.207 278.853L897.471 263.218C900.747 265.452 904.619 267.425 909.086 269.137C913.553 270.85 918.727 271.631 924.609 271.482C929.821 271.334 933.841 269.361 936.671 265.564C939.574 261.841 941.026 256.815 941.026 250.487V234.517C938.867 240.026 935.889 243.712 932.092 245.573C928.295 247.434 923.976 248.365 919.137 248.365C911.319 248.365 905.252 246.094 900.933 241.553C896.689 237.011 893.711 230.794 891.999 222.902C890.361 215.01 889.542 206.076 889.542 196.099V148.077C889.542 137.877 890.51 128.719 892.446 120.604C894.456 112.489 897.769 106.086 902.385 101.395C907.001 96.6303 913.255 94.3223 921.147 94.4712C925.912 94.5457 930.007 95.7369 933.432 98.0449C936.931 100.353 939.463 103.927 941.026 108.766V96.4814H963.92V248.365C963.92 253.13 963.325 257.895 962.133 262.66C961.017 267.425 959.044 271.78 956.214 275.726C953.46 279.747 949.588 282.985 944.6 285.442C939.686 287.974 933.395 289.351 925.726 289.575ZM927.96 230.161C930.938 230.161 933.395 229.268 935.33 227.481C937.266 225.694 938.681 222.381 939.574 217.542C940.542 212.628 941.026 205.592 941.026 196.434V144.727C941.026 134.527 940.095 126.784 938.234 121.498C936.447 116.211 932.65 113.568 926.843 113.568C922.599 113.568 919.435 114.908 917.35 117.589C915.34 120.195 914.037 123.806 913.441 128.422C912.846 133.038 912.548 138.398 912.548 144.503V196.658C912.548 207.751 913.553 216.127 915.563 221.785C917.573 227.369 921.706 230.161 927.96 230.161ZM1034.63 264V96.4814H1057.53V114.238C1059.01 109.027 1062.18 104.411 1067.02 100.39C1071.93 96.3698 1077.78 94.3595 1084.55 94.3595C1092.96 94.3595 1099.52 97.3376 1104.21 103.294C1108.9 109.25 1111.24 118.296 1111.24 130.432V264H1088.35V130.544C1088.35 124.587 1087.01 120.269 1084.33 117.589C1081.65 114.908 1078.22 113.568 1074.05 113.568C1071 113.568 1068.21 114.238 1065.68 115.579C1063.15 116.919 1061.14 119.003 1059.65 121.833C1058.23 124.662 1057.53 128.31 1057.53 132.777V264H1034.63ZM1181.73 264V67.4449H1217.24C1227.3 67.4449 1235.08 68.9339 1240.58 71.9121C1246.09 74.8902 1249.97 79.6179 1252.2 86.0953C1254.43 92.5727 1255.59 101.098 1255.66 111.67V115.914C1255.66 126.858 1254.62 135.792 1252.53 142.717C1250.52 149.566 1246.62 154.517 1240.81 157.57C1245.5 159.431 1249.15 162.67 1251.75 167.286C1254.36 171.902 1256.18 177.449 1257.23 183.926C1258.34 190.404 1258.9 197.365 1258.9 204.81V208.942C1258.75 221.748 1257.45 232.209 1254.99 240.324C1252.61 248.439 1248.63 254.433 1243.04 258.304C1237.46 262.101 1229.83 264 1220.15 264H1181.73ZM1204.85 245.35H1219.03C1223.42 245.35 1226.81 244.27 1229.19 242.111C1231.58 239.952 1233.25 236.192 1234.22 230.831C1235.19 225.396 1235.67 217.877 1235.67 208.272V201.46C1235.67 189.324 1234.7 180.613 1232.77 175.327C1230.83 169.966 1226.66 167.286 1220.26 167.286H1204.85V245.35ZM1204.85 149.529H1217.91C1221.04 149.529 1223.57 149.194 1225.51 148.524C1227.44 147.779 1228.93 146.328 1229.98 144.168C1231.09 142.009 1231.84 138.808 1232.21 134.564C1232.58 130.32 1232.77 124.625 1232.77 117.477V112.005C1232.77 104.56 1232.21 99.0128 1231.09 95.3646C1229.98 91.7165 1228.19 89.2968 1225.73 88.1055C1223.35 86.9143 1220.18 86.3186 1216.24 86.3186H1204.85V149.529ZM1358.31 266.01C1350.42 266.01 1344.02 264.67 1339.1 261.99C1334.19 259.235 1330.39 255.363 1327.71 250.375C1325.11 245.312 1323.32 239.282 1322.35 232.283C1321.38 225.21 1320.9 217.318 1320.9 208.607V149.306C1320.9 138.808 1321.91 129.427 1323.92 121.163C1325.93 112.898 1329.61 106.384 1334.97 101.619C1340.41 96.8537 1348.19 94.4712 1358.31 94.4712C1365.91 94.4712 1372.12 95.8486 1376.96 98.6033C1381.8 101.284 1385.56 105.118 1388.24 110.106C1390.92 115.02 1392.75 120.827 1393.71 127.528C1394.76 134.155 1395.28 141.414 1395.28 149.306V208.607C1395.28 217.169 1394.83 224.95 1393.94 231.948C1393.04 238.947 1391.3 245.015 1388.69 250.152C1386.16 255.215 1382.44 259.123 1377.52 261.878C1372.68 264.633 1366.28 266.01 1358.31 266.01ZM1358.31 246.913C1362.33 246.913 1365.31 245.573 1367.25 242.893C1369.26 240.212 1370.6 236.49 1371.27 231.725C1371.94 226.885 1372.27 221.301 1372.27 214.973V144.727C1372.27 138.473 1371.94 133.038 1371.27 128.422C1370.6 123.731 1369.26 120.083 1367.25 117.477C1365.24 114.871 1362.26 113.568 1358.31 113.568C1354.14 113.568 1351.02 114.871 1348.93 117.477C1346.85 120.083 1345.47 123.731 1344.8 128.422C1344.2 133.038 1343.91 138.473 1343.91 144.727V214.973C1343.91 221.301 1344.2 226.885 1344.8 231.725C1345.47 236.49 1346.85 240.212 1348.93 242.893C1351.02 245.573 1354.14 246.913 1358.31 246.913ZM1489.33 265.452C1479.2 265.452 1471.91 261.543 1467.44 253.726C1462.97 245.834 1460.7 234.926 1460.63 221.004V204.698C1460.63 197.328 1461.89 191.222 1464.43 186.383C1466.96 181.469 1470.53 177.374 1475.15 174.098C1479.76 170.822 1485.2 167.882 1491.45 165.276C1497.71 162.595 1504.56 159.766 1512 156.788V143.833C1512 136.686 1511.78 130.916 1511.33 126.523C1510.88 122.056 1509.73 118.78 1507.87 116.695C1506.08 114.611 1503.18 113.568 1499.16 113.568C1495.21 113.568 1492.23 114.611 1490.22 116.695C1488.29 118.78 1487.02 122.056 1486.43 126.523C1485.83 130.99 1485.53 136.798 1485.53 143.945V149.752H1462.75V144.95C1462.75 137.803 1463.2 131.176 1464.09 125.071C1464.98 118.892 1466.7 113.531 1469.23 108.989C1471.76 104.448 1475.44 100.911 1480.28 98.38C1485.2 95.7741 1491.64 94.4712 1499.6 94.4712C1507.2 94.4712 1513.3 95.6997 1517.92 98.1566C1522.61 100.539 1526.18 104.076 1528.64 108.766C1531.17 113.457 1532.88 119.264 1533.78 126.188C1534.67 133.038 1535.12 140.967 1535.12 149.976V264H1512.11V249.482C1511.44 251.715 1510.14 254.098 1508.2 256.629C1506.27 259.086 1503.74 261.171 1500.61 262.883C1497.48 264.596 1493.72 265.452 1489.33 265.452ZM1495.81 246.913C1499.83 246.913 1503.29 245.647 1506.19 243.116C1509.1 240.51 1511.03 237.942 1512 235.41V171.641C1506.27 174.173 1501.54 176.481 1497.82 178.566C1494.17 180.576 1491.3 182.698 1489.22 184.931C1487.21 187.165 1485.79 189.845 1484.97 192.972C1484.16 196.099 1483.75 200.045 1483.75 204.81V220.333C1483.75 229.789 1484.56 236.601 1486.2 240.771C1487.84 244.866 1491.04 246.913 1495.81 246.913ZM1604.04 264V96.4814H1627.05V115.132C1628.98 108.654 1632.33 103.592 1637.1 99.9435C1641.94 96.2953 1648.08 94.4712 1655.53 94.4712C1655.68 94.4712 1655.75 95.4763 1655.75 97.4866C1655.82 99.4223 1655.86 101.656 1655.86 104.187C1655.86 106.719 1655.86 108.989 1655.86 111C1655.86 112.935 1655.86 113.903 1655.86 113.903C1652.29 113.903 1648.71 114.35 1645.14 115.244C1641.57 116.062 1638.22 117.514 1635.09 119.599C1631.96 121.609 1629.28 124.364 1627.05 127.863V264H1604.04ZM1740.53 265.452C1732.27 265.452 1726.09 263.032 1721.99 258.193C1717.97 253.353 1715.29 246.801 1713.95 238.537C1712.69 230.198 1712.05 220.817 1712.05 210.394V147.072C1712.05 137.095 1712.95 128.161 1714.73 120.269C1716.6 112.303 1719.83 106.011 1724.45 101.395C1729.14 96.7793 1735.66 94.4712 1743.99 94.4712C1748.39 94.4712 1752.3 95.7369 1755.72 98.2683C1759.22 100.8 1761.86 103.927 1763.65 107.649V65.323H1786.66V264H1763.65V249.928C1761.42 255.438 1758.25 259.421 1754.16 261.878C1750.06 264.261 1745.52 265.452 1740.53 265.452ZM1748.46 246.801C1751.96 246.801 1754.83 245.945 1757.06 244.233C1759.37 242.446 1761.04 239.17 1762.09 234.405C1763.2 229.64 1763.76 222.828 1763.76 213.968V146.737C1763.76 135.867 1762.83 127.64 1760.97 122.056C1759.18 116.472 1755.2 113.68 1749.02 113.68C1743.44 113.754 1739.71 116.509 1737.85 121.944C1735.99 127.305 1735.06 135.755 1735.06 147.295V214.973C1735.06 221.45 1735.36 227.071 1735.95 231.836C1736.62 236.601 1737.93 240.287 1739.86 242.893C1741.8 245.499 1744.66 246.801 1748.46 246.801Z" fill="black"/>
<path d="M421.587 345.299C421.587 351.359 419.727 355.829 416.007 358.709C412.347 361.529 407.937 362.939 402.777 362.939C399.537 362.939 396.477 362.369 393.597 361.229C390.717 360.029 388.347 358.109 386.487 355.469C384.687 352.829 383.787 349.439 383.787 345.299V316.319C383.787 310.139 385.467 305.459 388.827 302.279C392.247 299.099 396.927 297.509 402.867 297.509C408.807 297.509 413.397 299.189 416.637 302.549C419.937 305.909 421.587 310.529 421.587 316.409V345.299ZM416.637 315.509C416.637 311.129 415.347 307.829 412.767 305.609C410.247 303.389 406.887 302.279 402.687 302.279C398.487 302.279 395.127 303.389 392.607 305.609C390.087 307.829 388.827 311.129 388.827 315.509V345.209C388.827 349.469 390.117 352.709 392.697 354.929C395.337 357.089 398.667 358.169 402.687 358.169C406.767 358.169 410.097 357.119 412.677 355.019C415.317 352.859 416.637 349.559 416.637 345.119V315.509ZM476.832 331.079C476.832 327.419 475.752 324.779 473.592 323.159C471.492 321.479 468.762 320.639 465.402 320.639C463.362 320.639 461.292 320.939 459.192 321.539C457.092 322.079 455.232 322.799 453.612 323.699V361.949H448.572V316.859H453.612L453.252 319.919C454.692 318.659 456.522 317.729 458.742 317.129C460.962 316.469 463.272 316.139 465.672 316.139C468.972 316.139 471.792 316.679 474.132 317.759C476.532 318.839 478.392 320.459 479.712 322.619C481.092 324.779 481.782 327.509 481.782 330.809V361.949H476.832V331.079ZM536.412 358.799C534.252 360.179 531.792 361.229 529.032 361.949C526.272 362.669 523.512 363.029 520.752 363.029C516.312 363.029 512.772 361.949 510.132 359.789C507.552 357.569 506.262 354.269 506.262 349.889V331.439C506.262 326.579 507.762 322.799 510.762 320.099C513.822 317.399 517.842 316.049 522.822 316.049C527.802 316.049 531.672 317.399 534.432 320.099C537.252 322.739 538.662 326.429 538.662 331.169V342.869L511.302 344.399V349.889C511.302 352.769 512.232 354.929 514.092 356.369C515.952 357.809 518.382 358.529 521.382 358.529C525.582 358.529 529.932 357.329 534.432 354.929L536.412 358.799ZM533.622 330.539C533.622 326.819 532.452 324.209 530.112 322.709C527.772 321.149 525.312 320.369 522.732 320.369C519.432 320.369 516.702 321.269 514.542 323.069C512.382 324.869 511.302 327.689 511.302 331.529V339.449L533.622 338.369V330.539ZM604.804 316.859H609.844L609.394 321.449C611.014 319.709 612.904 318.389 615.064 317.489C617.284 316.589 619.474 316.139 621.634 316.139C627.214 316.139 631.444 317.759 634.324 320.999C637.264 324.239 638.734 328.439 638.734 333.599V346.109C638.734 351.569 637.204 355.769 634.144 358.709C631.084 361.589 627.034 363.029 621.994 363.029C619.414 363.029 617.134 362.669 615.154 361.949C613.174 361.229 611.404 359.969 609.844 358.169V378.869L604.804 380.849V316.859ZM633.694 333.239C633.694 328.859 632.524 325.679 630.184 323.699C627.904 321.719 625.174 320.729 621.994 320.729C618.754 320.729 615.964 321.719 613.624 323.699C611.284 325.619 610.024 328.649 609.844 332.789V347.009C609.844 350.909 610.954 353.789 613.174 355.649C615.394 357.509 618.334 358.439 621.994 358.439C625.294 358.439 628.054 357.479 630.274 355.559C632.554 353.579 633.694 350.729 633.694 347.009V333.239ZM664.049 298.949H669.089V361.949H664.049V298.949ZM729.557 361.949C723.077 362.609 718.397 362.939 715.517 362.939C709.217 362.939 704.207 361.769 700.487 359.429C696.767 357.089 694.907 352.859 694.907 346.739V339.269C694.907 333.329 696.977 329.339 701.117 327.299C703.097 326.279 705.617 325.769 708.677 325.769C711.497 325.769 714.347 326.249 717.227 327.209C720.107 328.109 722.537 329.309 724.517 330.809C724.517 327.509 723.557 324.899 721.637 322.979C719.717 320.999 716.027 320.009 710.567 320.009L710.837 316.139C716.597 316.139 720.827 317.069 723.527 318.929C726.287 320.729 727.967 322.889 728.567 325.409C729.227 327.929 729.557 331.169 729.557 335.129V361.949ZM724.517 334.679C722.057 333.539 719.417 332.549 716.597 331.709C713.837 330.869 711.287 330.449 708.947 330.449C702.887 330.449 699.857 333.479 699.857 339.539V347.369C699.857 351.269 701.207 354.119 703.907 355.919C706.607 357.659 710.447 358.529 715.427 358.529C718.007 358.529 721.037 358.289 724.517 357.809V334.679ZM780.318 361.409C776.598 362.369 772.998 362.849 769.518 362.849C766.278 362.849 763.578 362.489 761.418 361.769C757.878 360.569 755.298 358.739 753.678 356.279C752.118 353.759 751.338 350.249 751.338 345.749V334.229C751.338 328.289 752.898 323.789 756.018 320.729C759.138 317.609 763.158 316.049 768.078 316.049C771.978 316.049 775.998 317.009 780.138 318.929L778.698 322.619C775.278 321.239 771.978 320.549 768.798 320.549C765.078 320.549 762.078 321.629 759.798 323.789C757.518 325.889 756.378 329.189 756.378 333.689V346.739C756.378 350.879 757.608 353.879 760.068 355.739C762.588 357.599 765.918 358.529 770.058 358.529C772.758 358.529 775.818 358.139 779.238 357.359L780.318 361.409ZM831.151 358.799C828.991 360.179 826.531 361.229 823.771 361.949C821.011 362.669 818.251 363.029 815.491 363.029C811.051 363.029 807.511 361.949 804.871 359.789C802.291 357.569 801.001 354.269 801.001 349.889V331.439C801.001 326.579 802.501 322.799 805.501 320.099C808.561 317.399 812.581 316.049 817.561 316.049C822.541 316.049 826.411 317.399 829.171 320.099C831.991 322.739 833.401 326.429 833.401 331.169V342.869L806.041 344.399V349.889C806.041 352.769 806.971 354.929 808.831 356.369C810.691 357.809 813.121 358.529 816.121 358.529C820.321 358.529 824.671 357.329 829.171 354.929L831.151 358.799ZM828.361 330.539C828.361 326.819 827.191 324.209 824.851 322.709C822.511 321.149 820.051 320.369 817.471 320.369C814.171 320.369 811.441 321.269 809.281 323.069C807.121 324.869 806.041 327.689 806.041 331.529V339.449L828.361 338.369V330.539ZM899.543 312.539C899.543 307.559 900.803 303.899 903.323 301.559C905.843 299.219 908.963 298.049 912.683 298.049C913.823 298.049 914.933 298.139 916.013 298.319L915.203 302.729C914.123 302.609 913.343 302.549 912.863 302.549C907.343 302.549 904.583 305.879 904.583 312.539V316.859H914.843L912.683 321.629H904.583V361.949H899.543V312.539ZM970.562 345.389C970.562 350.429 969.182 354.599 966.422 357.899C963.662 361.199 959.492 362.849 953.912 362.849C948.332 362.849 944.102 361.199 941.222 357.899C938.402 354.539 936.992 350.369 936.992 345.389V333.509C936.992 327.809 938.432 323.459 941.312 320.459C944.252 317.399 948.452 315.869 953.912 315.869C959.132 315.869 963.212 317.459 966.152 320.639C969.092 323.759 970.562 328.049 970.562 333.509V345.389ZM965.522 333.509C965.522 329.009 964.472 325.709 962.372 323.609C960.332 321.509 957.512 320.459 953.912 320.459C950.192 320.459 947.282 321.509 945.182 323.609C943.082 325.709 942.032 329.009 942.032 333.509V346.289C942.032 349.889 943.082 352.799 945.182 355.019C947.342 357.239 950.252 358.349 953.912 358.349C957.632 358.349 960.482 357.269 962.462 355.109C964.502 352.889 965.522 349.949 965.522 346.289V333.509ZM994.356 316.859H999.396L999.126 320.009C1001.95 317.369 1005.64 316.049 1010.2 316.049C1011.82 316.049 1014.04 316.319 1016.86 316.859L1015.51 321.449C1013.59 320.849 1011.58 320.549 1009.48 320.549C1006.72 320.549 1004.35 321.059 1002.37 322.079C1000.39 323.099 999.396 324.629 999.396 326.669V361.949H994.356V316.859ZM1119.04 298.859V345.209C1119.04 351.269 1117.18 355.679 1113.46 358.439C1109.8 361.199 1105.36 362.579 1100.14 362.579C1094.92 362.579 1090.45 361.199 1086.73 358.439C1083.01 355.679 1081.15 351.269 1081.15 345.209V298.859H1086.19V345.929C1086.19 349.589 1087.51 352.529 1090.15 354.749C1092.85 356.969 1096.15 358.079 1100.05 358.079C1103.95 358.079 1107.25 356.969 1109.95 354.749C1112.65 352.529 1114 349.589 1114 345.929V298.859H1119.04ZM1170.64 335.489L1153.99 361.949H1147.78L1167.67 330.269L1149.49 298.949H1155.16L1170.64 325.409L1186.3 298.949H1191.97L1173.7 330.269L1193.41 361.949H1187.2L1170.64 335.489ZM1243.9 288.419H1249.03L1220.23 372.209H1214.74L1243.9 288.419ZM1311.01 298.859V345.209C1311.01 351.269 1309.15 355.679 1305.43 358.439C1301.77 361.199 1297.33 362.579 1292.11 362.579C1286.89 362.579 1282.42 361.199 1278.7 358.439C1274.98 355.679 1273.12 351.269 1273.12 345.209V298.859H1278.16V345.929C1278.16 349.589 1279.48 352.529 1282.12 354.749C1284.82 356.969 1288.12 358.079 1292.02 358.079C1295.92 358.079 1299.22 356.969 1301.92 354.749C1304.62 352.529 1305.97 349.589 1305.97 345.929V298.859H1311.01ZM1344.71 303.539L1338.68 303.359V298.949H1349.75V361.949H1344.71V303.539ZM1425.62 363.119C1422.26 362.159 1419.83 360.629 1418.33 358.529C1416.83 356.429 1416.08 353.609 1416.08 350.069V298.949H1421.12V316.859H1431.92L1429.76 321.629H1421.12V350.069C1421.12 354.869 1423.1 357.929 1427.06 359.249L1425.62 363.119ZM1489.89 345.389C1489.89 350.429 1488.51 354.599 1485.75 357.899C1482.99 361.199 1478.82 362.849 1473.24 362.849C1467.66 362.849 1463.43 361.199 1460.55 357.899C1457.73 354.539 1456.32 350.369 1456.32 345.389V333.509C1456.32 327.809 1457.76 323.459 1460.64 320.459C1463.58 317.399 1467.78 315.869 1473.24 315.869C1478.46 315.869 1482.54 317.459 1485.48 320.639C1488.42 323.759 1489.89 328.049 1489.89 333.509V345.389ZM1484.85 333.509C1484.85 329.009 1483.8 325.709 1481.7 323.609C1479.66 321.509 1476.84 320.459 1473.24 320.459C1469.52 320.459 1466.61 321.509 1464.51 323.609C1462.41 325.709 1461.36 329.009 1461.36 333.509V346.289C1461.36 349.889 1462.41 352.799 1464.51 355.019C1466.67 357.239 1469.58 358.349 1473.24 358.349C1476.96 358.349 1479.81 357.269 1481.79 355.109C1483.83 352.889 1484.85 349.949 1484.85 346.289V333.509ZM1564.29 333.419L1559.61 337.469V361.949H1554.57V298.949H1559.61V331.799L1577.61 315.149L1581.21 318.659L1567.89 330.269C1571.97 337.049 1578.54 347.609 1587.6 361.949H1581.57L1564.29 333.419ZM1636.89 331.079C1636.89 327.419 1635.81 324.779 1633.65 323.159C1631.55 321.479 1628.82 320.639 1625.46 320.639C1623.42 320.639 1621.35 320.939 1619.25 321.539C1617.15 322.079 1615.29 322.799 1613.67 323.699V361.949H1608.63V316.859H1613.67L1613.31 319.919C1614.75 318.659 1616.58 317.729 1618.8 317.129C1621.02 316.469 1623.33 316.139 1625.73 316.139C1629.03 316.139 1631.85 316.679 1634.19 317.759C1636.59 318.839 1638.45 320.459 1639.77 322.619C1641.15 324.779 1641.84 327.509 1641.84 330.809V361.949H1636.89V331.079ZM1703.76 345.389C1703.76 350.429 1702.38 354.599 1699.62 357.899C1696.86 361.199 1692.69 362.849 1687.11 362.849C1681.53 362.849 1677.3 361.199 1674.42 357.899C1671.6 354.539 1670.19 350.369 1670.19 345.389V333.509C1670.19 327.809 1671.63 323.459 1674.51 320.459C1677.45 317.399 1681.65 315.869 1687.11 315.869C1692.33 315.869 1696.41 317.459 1699.35 320.639C1702.29 323.759 1703.76 328.049 1703.76 333.509V345.389ZM1698.72 333.509C1698.72 329.009 1697.67 325.709 1695.57 323.609C1693.53 321.509 1690.71 320.459 1687.11 320.459C1683.39 320.459 1680.48 321.509 1678.38 323.609C1676.28 325.709 1675.23 329.009 1675.23 333.509V346.289C1675.23 349.889 1676.28 352.799 1678.38 355.019C1680.54 357.239 1683.45 358.349 1687.11 358.349C1690.83 358.349 1693.68 357.269 1695.66 355.109C1697.7 352.889 1698.72 349.949 1698.72 346.289V333.509ZM1750.66 325.499L1741.48 361.949H1734.55L1720.78 316.859H1726.09L1738.06 356.729L1748.23 316.859H1753.36L1763.26 356.729L1775.32 316.859H1780.63L1766.68 361.949H1759.75L1750.66 325.499Z" fill="black"/>
<defs>
<clipPath id="clip0_2549_6505">
<path d="M0 53.0255C0 42.5051 8.52853 33.9766 19.049 33.9766H245.601C292.067 33.9766 329.734 71.6442 329.734 118.11V343.9C329.734 354.421 321.206 362.949 310.685 362.949H74.6086C33.4034 362.949 0 329.546 0 288.341V53.0255Z" fill="white"/>
</clipPath>
</defs>
</svg>
